<svg height="819.01" viewBox="0 0 1861.48 819.01" width="1861.48" xmlns="http://www.w3.org/2000/svg" xmlns:xlink="http://www.w3.org/1999/xlink"><clipPath id="a"><path d="m0 0h1861.48v819.01h-1861.48z"/></clipPath><g clip-path="url(#a)"><path d="m1159 798.65 28.68 409.85a31.82 31.82 0 0 1 -31.74 34h-233.77v-375.78z" fill="#f5f5f5"/><path d="m1116.65 476.41a239.19 239.19 0 0 0 -43.72-16.72l-16.45-4.5h-119.71l-48 8.92-12.77 454.06h229a20.21 20.21 0 0 0 20.2-20.61z" fill="#e3e8f2"/><path d="m1138.78 485.41 7.31 4.32a57.64 57.64 0 0 1 28 43.73l22.74 221.8a164.1 164.1 0 0 0 17.77 59.2l77.92 149.21a15 15 0 0 1 -4.1 18.83l-45.42 35.35a15 15 0 0 1 -22.46-4.73l-89.73-166.12a153.88 153.88 0 0 1 -18.24-64.47l-17.81-316.13 36.91 15.44a56.24 56.24 0 0 1 7.11 3.57z" fill="#f5f5f5"/><path d="m1007.82 178.29s-50.23-29.16-64.81 0-10 25.52-33.68 26.21c-17.44.5-36.65 23.76-31.13 40.22s15.21 16.66 8.73 28-12 7.65-20.08 15.75-6.48 21.06 0 29.16 16.37 9 17.83 17.83c1.63 10 1.94 17.6-4.54 22.46s-4.71 22.73 4.54 26.15c21.09 7.79 25.86-14 34 0 10.49 18 21.07 29.16 37.27 16.2s47-4.33 64.81 4.31 71.29 10.27 72.91-10.79-4.56-27 6.79-39.92 21.61-11.6 16.75-34.28-29.88-32.73-26.64-42.46 20.84-8.1 21.69-22.69-.76-25.92-33.17-42.12-32.39-59.95-71.27-34.03z" fill="#43200a"/><path d="m1022.81 387.76-.53 27.31c-.3 15.74 8.31 30.55 22.52 37.33a52.55 52.55 0 0 0 11.31 3.89c0 49.68-14.35 68.52-68.31 68.52s-51.39-68.52-51.39-68.52 30.78-5.36 36.34-25c3-10.73 1.85-43.58 1.85-43.58z" fill="#cb9566"/><path d="m1058.11 314.75c-5.4 12.63-3.61 25.5 4 28.76s18.16-4.34 23.57-17 3.61-25.51-4-28.76-18.16 4.38-23.57 17z" fill="#cb9566"/><path d="m940.44 314.75c5.4 12.63 3.61 25.5-4 28.76s-18.16-4.34-23.56-17-3.62-25.51 4-28.76 18.12 4.38 23.56 17z" fill="#cb9566"/><path d="m921.83 457.12-13.44 812.41-102.7-2.06a31.82 31.82 0 0 1 -31.61-35.47l82.5-751.28s15.79-19.05 67-23.94z" fill="#f5f5f5"/><path d="m853.56 772.86s37.65 64.58 71.14 97.92c17.26 13.64 18.69 11.57 27.14 20.7 6.68 7.21 26 35.33 33.87 46.77 1.81 2.65-.43 6.47-3.76 6.32-3.55-.16-7.89-1.72-11.6-7-7.92-11.29-19.93-23.4-19.93-23.4l1.44 19.83a100 100 0 0 0 22.85 56.7c2.24 2.68 4.41 5.21 6.38 7.37-1 6.48-13.37 3.36-19.94 1.22a14.07 14.07 0 0 1 -6.51-4.39c-7.28-8.75-36-40.83-38.66-50.57l-3.27-11.82s-2.66-23.5-7.61-33.89-92.63-99.8-92.63-99.8z" fill="#cb9566"/><path d="m881.65 463.93c-97.89 33.27-99.6 176.43-139.55 252.36-12.1 22.91-12.17 41.31 15.09 60.34 45 31.45 64.59 68.19 92.82 115.14 11.86 19.74 28.43 14.49 40.87 2.47 9.58-9.24 23.27-26.87 31.31-39.29 6-9.3 9.09-13.12 1.06-26.16-21.63-35.11-44-89.36-79-116.2 11.42-43.29 15.86-98.39 32.11-141.49 16.22-43.1 19.64-63.1 13.37-105.89-2.84 1.46-4.87-1.09-8.08-1.28z" fill="#f5f5f5"/><path d="m1022.37 410.6-.09 4.47c-.3 15.74 8.31 30.55 22.52 37.33a52.55 52.55 0 0 0 11.31 3.89c0 49.68-14.35 68.52-68.31 68.52s-51.39-68.52-51.39-68.52 30.78-5.36 36.34-25c1.25-4.43 2-20.74 2-20.74z" fill="#cb9566"/><path d="m974.38 417.5-.61 7.33a18.91 18.91 0 0 0 -17.52 18.51l-2.25 123.37a3.65 3.65 0 0 1 -7.3-.13l2.3-123.37c.2-13.81 11.8-24.98 25.38-25.71z" fill="#333"/><path d="m1048.4 452.82 14.18 144.89a3.65 3.65 0 0 1 -7.27.72l-14.18-144.9a32.06 32.06 0 0 0 -50.24-23.18l-1-8a39.35 39.35 0 0 1 58.48 30.47z" fill="#333"/><circle cx="1060.21" cy="610.99" fill="#333" r="20.08" transform="matrix(.26387305 -.96455742 .96455742 .26387305 191.14 1472.42)"/><circle cx="1060.21" cy="610.99" fill="#858787" r="11.87" transform="matrix(.63486537 -.77262278 .77262278 .63486537 -84.95 1042.21)"/><path d="m953.7 564.82a42.08 42.08 0 0 1 41.3 42.71l3.32 50.07a29.09 29.09 0 0 1 -7.93 21.92l-12.41 13a1.82 1.82 0 0 1 -2.64-2.52l12.4-13a25.39 25.39 0 0 0 6.94-19.16l-3.33-50.14v-.15a38.44 38.44 0 0 0 -37.7-39.08 1.83 1.83 0 1 1 .07-3.65z" fill="#858787"/><path d="m953.73 563a43.93 43.93 0 0 1 43.08 44.65 3.65 3.65 0 1 1 -7.3-.13 36.62 36.62 0 0 0 -35.91-37.22 3.65 3.65 0 1 1 .13-7.3z" fill="#333"/><path d="m982.89 681.84 2.85 2.67a1.93 1.93 0 0 1 .09 2.73l-8.25 8.76a3.89 3.89 0 0 1 -5.49.18 3.89 3.89 0 0 1 -.18-5.5l8.25-8.79a1.93 1.93 0 0 1 2.73-.05z" fill="#004e87"/><path d="m953.93 564.82a42.09 42.09 0 0 0 -42.79 41.18l-5.14 49.94a29.1 29.1 0 0 0 7.14 22.19l11.93 13.46a1.82 1.82 0 0 0 2.73-2.42l-11.9-13.46a25.41 25.41 0 0 1 -6.25-19.39l5.13-50v-.15a38.45 38.45 0 0 1 39.08-37.7 1.83 1.83 0 1 0 .07-3.65z" fill="#858787"/><path d="m954 563a43.91 43.91 0 0 0 -44.65 43.07 3.65 3.65 0 1 0 7.3.13 36.61 36.61 0 0 1 37.22-35.9 3.65 3.65 0 1 0 .13-7.3z" fill="#333"/><path d="m920.55 680.72-2.94 2.57a1.92 1.92 0 0 0 -.19 2.72l7.93 9.08a3.87 3.87 0 0 0 5.48.37 3.88 3.88 0 0 0 .37-5.48l-7.93-9.08a1.92 1.92 0 0 0 -2.72-.18z" fill="#004e87"/><path d="m1022.37 410.6-.09 4.47a41.4 41.4 0 0 0 5.69 21.8c3.89 6.62-71.51 15.93-60.85 4.28a24.27 24.27 0 0 0 5.63-9.81c1.25-4.43 2-20.74 2-20.74z" fill="#cb9566"/><path d="m1022.31 405.36c-.25-4 .06-5.14.87-9.64-4.89 5.43-13.15 7.08-18.95 7.43-12.19.73-19.57-8.64-30.12-13.12.69 7 1 1.29.55 8.37.17-4.28-.28 7.23-.32 7.68 1.4 1.84 12.73 16.86 24.31 17.63 15.46 1.03 22.35-15.36 23.66-18.35z" fill="#a97d57" opacity=".5"/><ellipse cx="999.51" cy="310.6" fill="#cb9566" rx="73.88" ry="95.72"/><path d="m1072.79 298.49-53.62-75.49s-40.91 62.84-92.62 74.91a2.22 2.22 0 0 1 -2.74-2.33c6.53-66.08 75.7-97.64 75.7-97.64s72.38 23.54 73.28 100.55z" fill="#43200a"/><path d="m294.32 394.65s-20.6 45.89-61.94 63.29c-30 12.65-27.81 65.91.19 115.1 0 0-1.38-56.55 34.89-73.93s28.23-92.37 26.86-104.46z"/><path d="m476.79 703.54c22.11-50 33.23-118.45 4.11-149.86-17.44-18.8-42.91-14.47-63.71-26.49-25-14.48-29.11-41.06-31-72.45a241.66 241.66 0 0 1 1.18-38.32c-19.15 8.14-30.12 24.86-52.23 23.52-10.53-.63-24.77-2.67-33.64-12.52.24 35.33 8.77 45.56-4.61 78.42-8.64 21.26-34.07 44.62-48.37 51.2-23.48 10.78-1.25 41.07 2.74 73.22 10.92 88 38.06 160.68 96.15 182 33.32 12.2 77.63-32.3 100.83-60.31 9.89-11.95 20-29.07 28.55-48.41z" fill="#ffc292"/><path d="m299.57 499.11h-67.57c-31.52 0-57.3 26.57-57.3 59.06-5.5 212.91-6.52 377.63-3.38 497.45l351.53 5.07-4.9-502.52c0-32.49-25.79-59.06-57.31-59.06h-66.83l-48.55 80.94s-44.6-73.39-45.69-80.94z" fill="#94abcd"/><path d="m299.46 499.07c9.62-27.7 2.26-38.86 2-71.65 8.87 9.85 23.11 11.89 33.64 12.52 22.11 1.34 33.08-15.38 52.23-23.52a241.66 241.66 0 0 0 -1.18 38.32c1 16.38 2.57 31.44 7.4 44.16l-6.55 11.29-84.33-4.08a30.82 30.82 0 0 1 -3.21-7.04z" fill="#ffc292"/><path d="m304.28 466.07c-.36-6.82-3.23-31.77-4.71-39.94 8.88 9.85 25 13.18 35.57 13.81 22.11 1.34 33.08-15.38 52.23-23.52a241.66 241.66 0 0 0 -1.18 38.32c.06.83.9 11.18 1 12-2.54 3.33-20.89 31.25-41.9 32.65-28.09 1.86-38.65-27.89-41.01-33.32z" fill="#a97d57" opacity=".5"/><path d="m438.15 307.87c1.29 12 3.47 39.56 1.26 51.62-.08.36 0-2.25 0-2.4 24.35-2 12.59 28.38 6.66 39.71-1.88 3.59-4.81 8.61-9.09 10.32-3 1.2-8 .43-10.62-.42-7.86 35.47-32.6 46.73-37.25 51.36-22.87 22.77-46.61 25.9-74.88 12.25-21.23-10.25-41.36-35.25-51.41-61.39-5.81 6-15.26-1.57-17.92-5.36-4.83-6.9-6.83-15.55-7.65-23.74-.6-5.92-1.84-27.26 12.36-19.93-4.84-22.84-4.24-47.73 3.36-70.73 6.18-18.75 16-38.29 33.06-51.56 24.28-18.93 58.33-17.94 87.92-13.21 45.56 7.27 60.4 48.09 64.2 83.48z" fill="#ffc292"/><path d="m343.7 221.63s33 81.22 96.75 124.46c0 0 35.21-124.4-96.75-124.46z"/><path d="m344.27 221.63s-66.66 114.37-94.61 138.26c-20.01-53.89 17.8-156.06 94.61-138.26z"/><path d="m463.29 313.77-237.99 2.23s-3.49-62.32 37.75-102.06c1.89-1.84 3.88-3.61 6-5.34a108.83 108.83 0 0 1 32.5-18.35c47.57-17.23 87-1.33 111.68 15 2.43 1.59 4.72 3.2 6.84 4.79a133.45 133.45 0 0 1 20.93 18.66s23.06 27.37 22.29 85.07z" fill="#004e87"/><path d="m307.33 315.27-14.08.13c-2-45.55-23-94.38-28.6-102.91a49 49 0 0 1 4.39-3.91c3.86 5.62 36.05 56.06 38.29 106.69z" fill="#003b65"/><path d="m396.5 314.37-13.07.13c-.27-3.29.37-78.3 32.59-107.42a45.57 45.57 0 0 1 4 2.9c-30.55 25.64-23.58 103.62-23.52 104.39z" fill="#003b65"/><path d="m225.3 316s63.39 15 111.13 14.46 126.86-16.79 126.86-16.79z" fill="#003b65"/><path d="m345.26 577.65 37.97 27.01 41.09-105.55-30.72-.21z" fill="#004e87"/><path d="m346.52 577.65-37.97 27.01-41.09-105.55 30.73-.21z" fill="#004e87"/><path d="m423.45 594.68 162.31 204.69c14.16 21.09 43.44 26.47 65.06 12 21.62-14.51 27.71-43.65 13.55-64.75l-158.71-225.4z" fill="#94abcd"/><path d="m350.19 856.59a5.71 5.71 0 0 0 -1.24-3.73l-20-22.66a134.44 134.44 0 0 0 5.22-16.66q5-1.44 14.37-3.38t13.16-2.84a7.31 7.31 0 0 0 3.45-2q3.42-4.07-1.53-42.33a6.51 6.51 0 0 0 -2.15-3.85 5.72 5.72 0 0 0 -3.9-1.47l-29.05-1.47a86.29 86.29 0 0 0 -7.4-14.15l15.85-26a5.09 5.09 0 0 0 .7-3.9 6 6 0 0 0 -2.08-3.66l-28.09-23.49c-2.32-1.93-4.83-2-7.56-.17q-7.6 5.45-22.91 20.34a96 96 0 0 0 -15.66-4.89l-6-28.11a7.2 7.2 0 0 0 -2.28-3.71q-2.88-2.4-19.38-1.07t-23.61 3.08a5.8 5.8 0 0 0 -3.58 2.13 7.5 7.5 0 0 0 -1.47 3.91q0 17.18-.94 28.72a95.86 95.86 0 0 0 -14.42 7.42l-26.42-15.95a4.62 4.62 0 0 0 -3.74-.44 6.44 6.44 0 0 0 -3.52 2.06l-23.36 27.92a5.84 5.84 0 0 0 -1.41 3.83 4.85 4.85 0 0 0 1.37 3.58l19.9 22.81a100.74 100.74 0 0 0 -5.07 16.79q-5.19 1.31-14.79 3.28c-6.41 1.3-10.7 2.25-12.88 2.81a6.6 6.6 0 0 0 -3.46 2q-3.41 4.06 1.53 42.32a6.5 6.5 0 0 0 2.16 3.86 5.34 5.34 0 0 0 3.9 1.47l29 1.47a85.51 85.51 0 0 0 7.41 14.15l-15.85 26a5 5 0 0 0 -.7 3.9 6 6 0 0 0 2.07 3.66l28.06 23.48c2.31 1.94 4.84 2 7.56.17q7.75-5.57 23-20.48a89.77 89.77 0 0 0 15.54 5l6 28.1a7 7 0 0 0 2.28 3.71q2.86 2.4 19.36.94t23.83-3.09a5.09 5.09 0 0 0 3.46-2 7.58 7.58 0 0 0 1.46-3.9q0-17.19.94-28.72a97.88 97.88 0 0 0 14.43-7.38l26.42 16a4.5 4.5 0 0 0 3.74.44 6.39 6.39 0 0 0 3.52-2.06l23.35-27.91a5.84 5.84 0 0 0 1.41-3.88zm-105-13.08a50.37 50.37 0 1 1 45.71-54.63 50.37 50.37 0 0 1 -45.71 54.63z" fill="#858787"/><path d="m340.87 860.48a5.71 5.71 0 0 0 -1.24-3.73l-20-22.66a136.17 136.17 0 0 0 5.22-16.66q5-1.44 14.37-3.38t13.16-2.84a7.31 7.31 0 0 0 3.45-2q3.42-4.07-1.53-42.32a6.51 6.51 0 0 0 -2.15-3.86 5.78 5.78 0 0 0 -3.91-1.47l-29-1.47a86.29 86.29 0 0 0 -7.4-14.15l15.84-26a5.09 5.09 0 0 0 .71-3.9 6 6 0 0 0 -2.08-3.66l-28.06-23.49c-2.32-1.93-4.83-2-7.56-.16q-7.62 5.43-22.91 20.33a96 96 0 0 0 -15.66-4.89l-6-28.11a7.13 7.13 0 0 0 -2.28-3.7q-2.88-2.42-19.38-1.07t-23.61 3.07a5.8 5.8 0 0 0 -3.58 2.13 7.5 7.5 0 0 0 -1.47 3.91q0 17.18-.94 28.72a96.94 96.94 0 0 0 -14.43 7.42l-26.43-15.93a4.62 4.62 0 0 0 -3.74-.44 6.44 6.44 0 0 0 -3.52 2.06l-23.36 27.92a5.86 5.86 0 0 0 -1.41 3.83 4.85 4.85 0 0 0 1.37 3.58l19.9 22.81a101 101 0 0 0 -5.07 16.79q-5.19 1.3-14.8 3.28c-6.4 1.3-10.69 2.25-12.87 2.81a6.6 6.6 0 0 0 -3.46 2q-3.41 4.07 1.53 42.33a6.47 6.47 0 0 0 2.16 3.85 5.3 5.3 0 0 0 3.9 1.47l29 1.47a86.29 86.29 0 0 0 7.4 14.15l-15.85 26a5.11 5.11 0 0 0 -.7 3.91 6.06 6.06 0 0 0 2.07 3.65l28.07 23.49c2.31 1.93 4.84 2 7.56.16q7.74-5.57 23-20.48a88.65 88.65 0 0 0 15.54 5l6 28.11a7 7 0 0 0 2.28 3.7q2.86 2.4 19.36.94t23.75-3.09a5.09 5.09 0 0 0 3.46-2 7.58 7.58 0 0 0 1.46-3.9q0-17.19.94-28.72a96.92 96.92 0 0 0 14.43-7.43l26.42 16a4.54 4.54 0 0 0 3.74.43 6.33 6.33 0 0 0 3.51-2.06l23.36-27.91a5.84 5.84 0 0 0 1.44-3.84zm-105-13.08a50.37 50.37 0 1 1 27.87-88.8 50.37 50.37 0 0 1 -27.87 88.8z" fill="#eee"/><path d="m246.85 895.86c-84.28-13.41-140-48.72-162.86-65.8-7.81-5.83-11.79-9.54-11.79-9.54-43.2-90.79 61.45-232.59 75.73-259.52 15.41-29.1 83-59.27 83-59.27s-15 44.2-20.89 101.82-68.48 169.93-65.92 179.35c.65 2.38 8.21 7.36 19.24 13.65 32.71 18.62 95.91 48.65 99.75 55.7 5.13 9.36-16.26 43.61-16.26 43.61z" fill="#ffc292"/><path d="m211.5 603.5c-6 57.62-70 169.93-67.41 179.35.66 2.38 77.5 44.29 88.78 50.58-.71.05-66.67 31.83-72.48 40.27-8-5.83-67.64-23.27-89.84-53.18-52.29-70.44 51.88-241.3 73.2-263.36 65.63-67.91 89.12-57.61 89.12-57.61a548.32 548.32 0 0 0 -21.37 103.95z" fill="#94abcd"/><path d="m440.27 979.82a8.09 8.09 0 0 0 7.89 9.45l140.61 1.36 82.48.8a8.08 8.08 0 0 0 8-6.71l28.63-166.86 14.38-84.28 9.62-55.58a8.09 8.09 0 0 0 -7.9-9.45l-62.27-.55-86.89-1-23.25-.15-20.35-.14-30.45-.36a8.09 8.09 0 0 0 -8.06 6.71l-11.33 66-15.69 91.83-2.32 13.81-3.37 19.8-8.86 51.87z" fill="#94abcd"/><path d="m635.84 659.17a13.79 13.79 0 0 0 .56-3.69 14.37 14.37 0 1 0 -28.71 1.46 13.12 13.12 0 0 0 .49 1.94l-31.89-.34-5 29.54 86.83.79 5-29.41zm-22.84-2.5a9 9 0 1 1 17.54 2.45l-17-.18a8.71 8.71 0 0 1 -.54-2.27z" fill="#333"/><path d="m687.41 883.66c-9.77-5.09-9.5-22.65-9.44-26.57.44-28.66 26.56-58.4 43.64-54.24 12.34 3 20.14 23.73 17.84 40.2-3.92 28.07-37.8 48.03-52.04 40.61z" fill="#ffc292"/><path d="m1409.58 1019.74h-144.68c6-92.78 11.51-179 18.19-289 7.34-120.65 13-219.6 16.85-285.52 22.86 0 45.72 0 68.59.17q20.52 287.08 41.05 574.35z" fill="#fff"/><path d="m1406.91 1019.71q-19.91-287.71-39.91-575.31c34.6 13.41 70.29 26.47 103 45.11 26.7 15.2 96.68 80.18 108.56 94.09 18.88 22.11 54.83 75.27 54.83 75.27s-11.65-141.65-14.5-171.61c1.58-1.16 4-1.13 6.06-1.6 7.43-1.67 14.86-2.8 22.43-4.69 17.63-2.47 38.19-9.2 54.21-9.41 3.8 116.73 8.83 167.42 3.09 218.94-9.18 82.45-65.39 80.92-128.07 37.15-40.37-28.18-31.25-21.45-62.7-54.85 3 112.7 21.58 232.17 26.41 347" fill="#fff"/><rect fill="#e1e1e1" height="13.79" rx="5.9" transform="matrix(.99995224 -.00977369 .00977369 .99995224 -3.18 16.31)" width="72.74" x="1626.06" y="326.12"/><path d="m1637.35 339.91h50.96v67.97h-50.96z" fill="#e1e1e1" transform="matrix(.99995224 -.00977369 .00977369 .99995224 -3.59 16.32)"/><path d="m1646.45 386.48-70.35 124.17a19.07 19.07 0 0 0 16.78 28.48l143.12-1.4a19.07 19.07 0 0 0 16.22-28.8l-72.77-122.77a19.07 19.07 0 0 0 -33 .32z" fill="#e1e1e1"/><path d="m1649.23 402.4-59.15 104.39a16 16 0 0 0 14.12 23.95l120.32-1.18a16 16 0 0 0 13.64-24.22l-61.16-103.22a16 16 0 0 0 -27.77.28z" fill="#cbcbcb"/><path d="m1645.48 326.12h34.63v89.61h-34.63z" fill="#cbcbcb" transform="matrix(.99995224 -.00977369 .00977369 .99995224 -3.56 16.32)"/><path d="m1613.53 465.41-23.45 41.38a16 16 0 0 0 14.12 23.95l120.32-1.18a16 16 0 0 0 13.64-24.22l-22.34-36.45" fill="#94abcd"/><path d="m1264.9 1019.74c2.34-37.71 4.9-75.41 7.24-113.12 14.35-3.17 28.8-6.19 43.15-9.36-2.16-24.7-4.17-49.4-6.34-74.09-10.51-.17-21-.17-31.54-.34q11.27-188.73 22.53-377.63a252.14 252.14 0 0 0 -91.44 23c-59.74 28-88.44 72.42-132.83 139.67-65.08 98.79-95 192.91-78.6 248 3.17 11.35 8.35 21.2 15.69 28.87 19.52 20.36 48.56 23.7 94.78 28 16.85 1.5 30.88 2 40.39 2.19-2.62 37.24-4.36 62-7 99.24m17.67-243.07c-.16 3-1.17 16.36-2.5 33.38-.17 4-.5 7.84-.83 12-19-1.33-37.55-3.17-55.74-5.17 3.67-15.85 9.35-33 15.52-51.73a479.17 479.17 0 0 1 52.23-108.8c-.5 7.52-8.18 112.81-8.68 120.32z" fill="#fff"/><path d="m1715.26 472.15c13.23-2.2 23.08-23.8 20.41-41.54-3.59-23.8-30-42.82-44-36.91-10.89 4.62-12.92 24-11.66 35.44 2.43 21.69 19.93 45.56 35.25 43.01z" fill="#004e87"/><path d="m1628.68 439.69c-5.6-1.1-8.38-16.83-5-28.75.36-1.29 4.82-16.66 13.41-17.06 3.89-.17 7.67 2.77 9.57 5.85 8 13.08-9.85 41.56-17.98 39.96z" fill="#004e87"/><path d="m1370.2 401.22c-1.1 15.66-2.06 28.88-3 44.55-4.34 4.38-32.86 162.12-32.86 162.12s-30.34-158.58-34.13-163.45c.61-12.85 1.4-25.95 2.17-38.79a7.93 7.93 0 0 0 3.29 2.26 7.76 7.76 0 0 0 2.68 1.45 3.65 3.65 0 0 0 1.27.6c.49 0 1 .31 1.31.07 4 1 6.66.4 8.51-.52a6.45 6.45 0 0 0 1.19-.7 10.94 10.94 0 0 0 2.93-2.66" fill="#ffc292"/><path d="m1368.26 429.28c.35-6.83 1.94-16.54 1.94-16.54s-8.87-23.9-19.41-23.27c-22.14 1.33-33.13-15.41-52.3-23.55 1.27 12.8 4.79 25.19 4 38 0 .83-.8 13.17-.87 14 2.55 3.33 13.45 19.88 34.49 21.28 13.29.8 29.22-4.04 32.15-9.92z" fill="#cc8052" opacity=".7"/><path d="m1268.73 286.57c-1.09 10.18-3.78 36.06-1.9 46.32.06.3 0-1.92 0-2-20.72-1.67-10.71 24.13-5.66 33.78 1.6 3.05 4.09 7.32 7.72 8.78 2.55 1 6.78.36 9-.37 14.11 29.39 26.11 39.48 30.11 43.42 19.45 19.37 42.09 19.86 66.14 8.25 18.06-8.72 48.1-39.9 55-93.93 1.59-12.5 3.61-40.6-2.85-60.17-5.26-15.94-13.66-32.57-28.13-43.86-20.65-16.1-49.62-15.25-74.79-11.24-38.78 6.19-51.37 40.92-54.64 71.02z" fill="#ffc292"/><path d="m1270.93 274.37s8.42-11.13 18.49-12.24 21.11 7.88 21.11 7.88c11.52-18.83 42.48-21 42.48-21 35.61.16 62.91 33.59 76.46 32.31 6.26-.59 8.42-4 13.29-13.84s4.57-33.78-13.9-52.66c0 0-81.68-68.5-121.1-1.78 0 0-38.69-7.1-43.78 9.84-7.98 26.44 6.95 51.49 6.95 51.49z" fill="#faaf3b"/><path d="m1264.4 221.77s-21.52 62-2.75 109.16l8.45 3.36s-5.73-45.35 12-75.06z" fill="#faaf3b"/><path d="m1311.93 494.72c10 48 22.41 113.17 22.41 113.17s11.5-63.6 21-111.15c-14.15 15.08-28.63 13.74-43.41-2.02z" fill="#43200a"/><path d="m1432.16 299.55v40.32a11.53 11.53 0 0 1 -6.16 10.22l-5.28 2.79a59.43 59.43 0 0 1 -49.89 2.65 12 12 0 0 1 -7.58-11.13v-2.66c0-5-2.76-7.92-6.8-10.28a12.67 12.67 0 0 0 -12.75 0c-4.06 2.37-7.62 5.29-7.62 10.32v2.66a12 12 0 0 1 -7.57 11.13 59.45 59.45 0 0 1 -49.9-2.65l-5.28-2.79a11.55 11.55 0 0 1 -6.16-10.22v-40.36a5.61 5.61 0 0 1 4.83-5.55 547.44 547.44 0 0 1 155.37 0 5.6 5.6 0 0 1 4.81 5.56" fill="#eee"/><path d="m1266 295.07a534.63 534.63 0 0 1 167.73 0" fill="#eee" stroke="#1d1d1b" stroke-miterlimit="10" stroke-width="4"/><path d="m1663.15 312.68c3.22-6.65 2.64-13.64.62-20s-5.43-12.06-9.2-18.16-7.69-12.57-10.07-20.47-1.73-16.93.49-24.5c4.8-15.44 14.61-26.82 21.37-38.46 3.39-5.89 6.16-11.87 7.26-18.49a31.84 31.84 0 0 0 -2.41-20.13c5.58 4.89 8.29 12.81 8.65 20.48a52.09 52.09 0 0 1 -4.57 22.52c-5.87 14-14.67 25.41-18.09 37.71a33.09 33.09 0 0 0 -1 17.91c1.16 6.05 4.32 12.17 7.17 18.8 3 6.47 5.92 13.95 6.56 21.65s-1.13 16.17-6.78 21.14z" fill="#fff"/><g fill="#004e87"><path d="m747.8 647.61c-26.06-44.15-41.18-97.61-14.89-145.11 2.66-4.82 5.84-10.06 11.13-11.57 11.37-3.25 26.42 1.4 35.93 7.54 33.03 21.28 52.11 59.53 69.71 93.53 18.28 35.37 33.91 72 52.29 107.35 7.45 14.3 15 28.8 18.62 44.5 3.2 13.76 2.95 29.35-2.76 42.44-24.71 56.57-83-16.48-100.72-38.56a851.05 851.05 0 0 1 -69.31-100.12z"/><path d="m789.87 819.29h-257c0-.5-.05-1-.07-1.51a878.87 878.87 0 0 0 -22.85-160.33c-3.55-14.9-9.78-34.37-14.61-54.85-8-34-12.18-68.72 6-91.86 8.21-10.45 22.83-17.72 34.8-22.9 23.35-10.09 47.22-23.65 72.22-28 26.35-4.64 55.65-7.5 81.92-.87 16.68 4.22 32.28 12 47.2 20.42 12.94 7.3 28.82 13.59 35.11 27.17 15.22 32.91 19.24 236.22 18.44 247.85-1.52 21.59-1.33 43.23-1.16 64.88z"/><path d="m387.26 675.15q-10.71 19.3-21.19 38.73c-14.13 26.33-40.37 84.82 1.64 99.28 21.16 7.28 33.27.16 47.25-15.26a891.19 891.19 0 0 0 133.81-193.9c13.31-26.11 48.65-94.15 5.72-109.69a52.12 52.12 0 0 0 -41.87 3.06 84.68 84.68 0 0 0 -15.87 11.71c-31 27.63-53 63.28-72.66 99.43-12.09 22.38-24.55 44.49-36.83 66.64z"/><path d="m1097.9 749.55c-3.62-.61-7.23-1.21-10.86-1.78q-26.43-4.14-52.63-9.84c-34.56-7.52-69.33-14-104.52-17.3-3.73-.36-7.46-.67-11.2-1-15.77-1.19-32.3-1.58-46.74 6s-25.95 25.37-22.4 42.6c2.48 12.08 11.72 21.18 22 25.77s21.58 5.38 32.67 6.13l107.78 7.25q26.68 1.79 53.36 3.65c17 1.18 34.23 3.58 51.26 3.57 7.2 0 15.25-1.36 21.3-6.17 8.42-6.68 13.48-20.91 14.3-32 .42-5.77-.71-12.78-5.13-16.35-2.37-1.91-5.38-2.5-8.27-3-13.68-2.57-27.26-5.19-40.92-7.53z"/></g><path d="m789.87 819.29h-257c0-.5-.05-1-.07-1.51a878.87 878.87 0 0 0 -22.85-160.33c-1.92-8.05-4.62-17.43-7.46-27.58a107.06 107.06 0 0 1 4.45 9.84c10.29 25 18.92 65.07 40.32 82.59 21.75 17.8 55.2 25.31 82.23 29.58 31.57 5 63.66 5.37 95.56 7.31 20.63 1.25 43.4 4.22 57 19.83a61.4 61.4 0 0 1 7.81 11.77c-.14 9.5-.07 19 .01 28.5z" opacity=".1"/><path d="m630.46 512.4c-12.78-4.1-23.31-12-27.26-24.67-3.58-11.46 2.07-24.36 3.07-35.92a218.3 218.3 0 0 0 .36-33.34c-.67-10.26-1.65-21-.07-31.17.89-5.85 4.1-4.85 10-7.17s12.54-2.35 19-2.33c13.16 0 47.45-.92 55.59 10.62 3.73 5.3 4 12 4.2 18.28.21 7.62 1.56 17.49 2.81 28.11.56 4.74.21 9.45.94 14.15.81 5.26 2.81 10.31 4.56 15.35 6.62 19.06.42 37.19-20.2 45.92-14.8 6.26-35.91 7.66-53 2.17z" fill="#f9dbba"/><path d="m605.81 373c.89-5.85 4.1-4.85 10-7.17s12.54-2.35 19-2.33c13.16 0 47.45-.92 55.59 10.62 3.73 5.3 4 12 4.2 18.28.21 7.62 1.56 17.49 2.81 28.12.56 4.73.21 9.44.94 14.14.62 4-.21 11.72 1.17 16.15-12.75 4.73-30.33 3.27-43.63 0-24-5.9-36.84-22.71-49.79-42.11-.06-1.51-.11-3-.21-4.53-.68-10.28-1.66-20.97-.08-31.17z" opacity=".1"/><path d="m587.52 312.18c.11-17.57 2.53-34.23 7.05-48.07 19.5-59.71 94-74.46 138.84-31.6 50 47.8 30.88 162.08-21.8 202.22a59.12 59.12 0 0 1 -50.34 9.92c-51.76-13.88-74.08-77.58-73.75-132.47z" fill="#f9dbba"/><path d="m597.31 313.66c-22.91-12.53-30 19.2-26 35a50.31 50.31 0 0 0 8.26 18.24c5.45 7.23 21 19.22 30 11.31 4.08-3.59 4.5-9.68 4.62-15.11.33-14.56-1.35-40.95-16.88-49.44z" fill="#f9dbba"/><path d="m772.09 786.25h206.84a33.21 33.21 0 0 1 33.21 33.21 0 0 0 0 1 0 0h-240a0 0 0 0 1 0 0v-33.21a0 0 0 0 1 -.05 0z" transform="matrix(-1 0 0 -1 1784.22 1605.71)"/><path d="m983 794.44 42.81-217.93a12.26 12.26 0 0 1 12-9.91h284.58a12.17 12.17 0 0 1 9.86 5.06l7.75 9.58-6.27 3.4-42.03 214.54a12.28 12.28 0 0 1 -12 9.9h-284.63a12.27 12.27 0 0 1 -12.07-14.64z"/><path d="m1287.68 819h-284.58a12.27 12.27 0 0 1 -12-14.64l42.8-217.93a12.28 12.28 0 0 1 12.05-9.91h284.58a12.27 12.27 0 0 1 12 14.64l-42.81 217.93a12.26 12.26 0 0 1 -12.04 9.91z" fill="#333"/><path d="m1198.17 692.39c-2.63 14.7-16.67 26.62-31.38 26.62s-24.32-11.92-21.48-26.62 16.88-26.62 31.37-26.62 24.11 11.92 21.49 26.62z"/><path d="m593.86 767.07q-5.42-.93-10.86-1.78-26.43-4.15-52.62-9.85c-34.57-7.51-69.34-14-104.53-17.3-3.72-.35-7.46-.67-11.19-.95-15.78-1.19-32.31-1.58-46.75 6s-25.91 25.35-22.39 42.55c2.47 12.09 11.72 21.18 22 25.77s21.58 5.38 32.67 6.13l107.81 7.26q26.69 1.77 53.36 3.65c17 1.18 34.22 3.58 51.25 3.56 7.21 0 15.25-1.36 21.3-6.16 8.42-6.69 13.48-20.91 14.3-32 .42-5.77-.7-12.78-5.13-16.36-2.36-1.91-5.37-2.49-8.27-3-13.7-2.59-27.29-5.19-40.95-7.52z" fill="#004e87"/><path d="m634.16 821.81c8.69 1.79 15.48 9.42 24.13 12 6.17 1.82 12.77.85 18.7-1.38 5.45-2 11-3.13 16.59-4.93 4.36-1.39 10.25-4.33 14.94-3.36 12.28 2.56 24.53 11.3 35.66 17 2.5 1.28 5.24 2.59 8 2.07s5.06-3.87 3.49-6.2c3.21 3 7.45 9 12.61 6.65 2.12-1 3.39-3.75 2.22-5.74 1.78 1.94 3.64 4 6.09 4.92s5.67.55 7.11-1.66a7 7 0 0 0 .95-3.55 27 27 0 0 0 -2.85-12.35c-8.77-19.14-28.6-33.33-45.47-44.73-3-2-6-4.06-9.47-5.11a33.06 33.06 0 0 0 -9.57-1.06 190.77 190.77 0 0 0 -61.68 10c-4.29 1.45-9 .22-13.29-.58-3.17-.6-6.48-1.18-9.57-.28-3.46 1-6.14 3.75-8.25 6.68-3.87 5.37-6.84 12.49-6.37 19.25.35 5.13.74 10.67 6.77 11.74 2.45.44 5 .17 7.44.43a17.71 17.71 0 0 1 1.82.19z" fill="#f9dbba"/><path d="m732.81 272.41c-26 5.71-27.86 16-64.27.35-40.76-17.56-79 1.42-76.07 90.69 0 0-57.75-149.23 50.6-173.18 70.68-15.63 114.2 34.51 118.83 44.46 7.58 16.32 19.41 58.06-1.86 108.43-.04 0 6.88-70.93-27.23-70.75z" fill="#42210b"/><path d="m744.78 210.25s-8.38-19.47-40.62-22c0 0 18.09 8.12 21 16.74a24.79 24.79 0 0 0 11.47 12.8s21.62 10.9 30.31 16.93c-.02-.04-4.79-18.55-22.16-24.47z" fill="#42210b"/><path d="m636.56 193.15s-43.32 2.3-57 42.54c0 0 17.35-18.65 37-23.18z" fill="#42210b"/><path d="m751.67 375.41s-14.23 32-46.32 26c-34.69-6.47-33.94-2.81-55.88 1.61-14 2.82-52.75-29.51-52.75-29.51s16.28 52.49 51.48 67.04c32.7 13.45 68.21 2.45 84.74-22.35 15.88-23.83 18.73-42.79 18.73-42.79z" fill="#42210b"/><path d="m695.81 411.02-15.86-4.89-17.44 4.92 17.41 4.55z" fill="#f9dbba"/><path d="m771.46 325.84c0-2.32 3.83-6-7.21-6.88s-16.68-2.18-28.79-2.21c-12.28 0-32.08.06-35.42 3.52s-5.85 4.53-13 4.54-11.38-1.05-14.9-4.56-24.5-3.74-37.95-3.77c-13.65 0-19.93 1.3-33 2.23-13.21.93-8.44 5-8.41 7.52s1.67 2.54 5 5.59 3.73 12 3.73 12c3.67 25.48 16 31.37 35.57 30.85 19.19-.51 23.34-4.83 28.7-9.26s9.28-19.65 10.93-25.06 9.63-6 9.63-6 7.94.45 9.68 5.78 6 20.22 11.18 24.31 9.21 8.07 26.9 7.6c17.36-.47 27.84-6.48 30.4-30 0 0 .17-8.25 2.89-11.08s4.1-2.8 4.07-5.12zm-101.18 23.07c-2.3 10.86-9.8 23-32.68 23-23.42 0-25.56-8.28-27.76-12.76s-5.32-20.05-5.51-27.22 5.08-8.55 5.08-8.55c12.79-4.19 41.3-3 52.74.47s10.43 14.23 8.13 25.06zm91.09-17.8c0 6.62-2.33 21.05-4.12 25.27s-3.47 12-24.19 13.09c-21.19 1.13-28.63-10.41-31.11-21s-3.59-21.26 7.22-24.69 36.47-4.45 47.68-.54c0 0 4.53 1.26 4.52 7.87z"/></g></svg>